<?xml version="1.0" encoding="UTF-8" standalone="no"?>
<svg xmlns="http://www.w3.org/2000/svg"
     viewBox="-1 -1 124.65589 77.980918" version="1.1">
  <defs>
    <rect id="tile-fill"
          width="21.423691" height="21.317766"
          x="0.3262403" y="0.20137644"
          ry="3.7118382" />
    <path id="tile-outline"
          d="M 3.89175,0 C 1.73575,0 0,1.735734 0,3.891752 v 14.021367
             c 0,2.156016 1.73575,3.891752 3.89175,3.891752 h 14.12937
             c 2.15603,0 3.89176,-1.735736 3.89176,-3.891752 V 3.891752
             C 21.91288,1.735734 20.17715,0 18.02112,0 Z m 0.0532,0.438216
             h 5.2e-4 14.02188 c 1.89888,0 3.4277,1.528826 3.4277,3.427698
             v 14.073043 c 0,0.02985 -0.004,0.05871 -0.005,0.08837
             -0.43701,0.446594 -1.57595,1.619206 -2.60501,1.62574
             -5.21898,-0.009 -10.43903,-0.04851 -15.65796,0 -1.02906,-0.0065
             -2.168,-1.179146 -2.60501,-1.62574 -7.5e-4,-0.02966 -0.005,-0.05852
             -0.005,-0.08837 V 3.865914 c 0,-1.898872 1.52882,-3.427698
             3.4277,-3.427698 z" />
    <path id="top-bubble"
          d="M 10.57702,2 c -3.8701706,0 -6.9861368,3.115449 -6.9861368,6.98562
             0,3.8701707 3.1159662,6.9861368 6.9861368,6.9861368 h 6.353617
             c -0.355628,1.4012618 -0.962665,2.1123148 -4.761983,7.8760051
             1.737238,-1.7773907 7.288347,-3.29868678 8.799463,-7.8760051
             h 78.231401 c 0.459706,3.87052432 4.406542,6.6272255
             7.815542,8.2966512 -3.61667,-5.9426486 -3.36092,-7.0377913
             -3.40548,-8.5085245 3.04892,-0.7515734 5.29994,-3.4868255
             5.29994,-6.7742635 0,-3.870171 -3.11545,-6.98562 -6.98562,-6.98562
             z" />
    <path id="left-bubble"
          d="M 32.433567,38.693366999999995 c -2.765702,2.565292
             -5.092521,6.808515 -7.779887,9.473324 H 9.7476133
             c -4.2692863,0 -7.7065063,3.43722 -7.7065063,7.706506 0,4.269287
             3.43722,7.70599 7.7065063,7.70599 H 31.632066 c 4.269286,0
             7.706506,-3.436703 7.706506,-7.70599 0,-4.269286
             -3.43722,-7.706506 -7.706506,-7.706506 h -1.88619
             c 2.310828,-2.691054 2.700611,-5.041592 2.687691,-9.473324 z" />
    <path id="right-bubble"
          d="M 63.030149,37.409725 c 0.882124,2.365694 2.305772,11.292295
           -2.3828,19.039664 h -8.201567 c -5.072279,0 -9.155513,4.083235
           -9.155513,9.155514 0,5.072279 4.083234,9.155514 9.155513,9.155514
           h 59.834078 c 5.07228,0 9.15551,-4.083235 9.15551,-9.155514
           0,-5.072279 -4.08323,-9.155514 -9.15551,-9.155514 H 94.487661
           C 87.719197,47.37473 91.653731,47.274712 84.978163,37.710482
           85.848886,40.0456 87.25078,48.773320999999996 82.777781,56.449389
           H 72.764439 c -7.083014,-9.375786 -2.985465,-9.370476
           -9.73429,-19.039664 z" />
  </defs>
  <g transform="translate(0,20.345)">
    <use href="#tile-fill" fill="#6fb05c" />
    <use href="#tile-outline" fill="#649e53" />
  </g>
  <g transform="translate(24.143,20.345)">
    <use href="#tile-fill" fill="#edeff1" />
    <use href="#tile-outline" fill="#d5d7d8" />
  </g>
  <g transform="translate(48.287,20.345)">
    <use href="#tile-fill" fill="#e9ba3a" />
    <use href="#tile-outline" fill="#d1a734" />
  </g>
  <g transform="translate(72.430,20.345)">
    <use href="#tile-fill" fill="#e9ba3a" />
    <use href="#tile-outline" fill="#d1a734" />
  </g>
  <g transform="translate(96.9,20.345)">
    <use href="#tile-fill" fill="#6fb05c" />
    <use href="#tile-outline" fill="#649e53" />
  </g>
  <g text-anchor="middle" font-size="15" font-family="sans-serif">
    <text fill="white" x="10.9565" y="37.345">ğ‘¢</text>
    <text fill="black" x="35.3005" y="37.345">ğ‘’</text>
    <text fill="white" x="59.6445" y="37.345">ğ‘©</text>
    <text fill="white" x="83.9885" y="37.345">ğ‘ª</text>
    <text fill="white" x="108.3325" y="37.345">ğ‘¤</text>
  </g>
  <use href="#top-bubble" stroke="#649e53" stroke-width="4"
       stroke-linejoin="round" fill="none" />
  <use href="#top-bubble" fill="#6fb05c" />
  <use href="#left-bubble" stroke="#d5d7d8" stroke-width="4"
       stroke-linejoin="round" fill="none" />
  <use href="#left-bubble" fill="#edeff1" />
  <use href="#right-bubble" stroke="#d1a734" stroke-width="4"
       stroke-linejoin="round" fill="none" />
  <use href="#right-bubble" fill="#e9ba3a" />
  <g fill="white"
     text-anchor="middle"
     font-size="5.644px" font-family="sans-serif">
    <text x="56.25" y="10.656">The ğ‘¢ and ğ‘¤ are in the right place</text>
    <text x="20.69" y="54.786" fill="black">There is</text>
    <text x="20.69" y="60.995" fill="black">no ğ‘’</text>
    <text x="82.363" y="64.604722">The word contains ğ‘© and ğ‘ª,</text>
    <text x="82.363" y="70.813607">but in a different place</text>
  </g>
</svg>
