<?xml version="1.0" encoding="UTF-8" standalone="no"?>
<svg xmlns="http://www.w3.org/2000/svg"
     viewBox="-1 -1 120.48613 120.37687" version="1.1">
  <defs>
    <rect id="tile-fill"
          width="21.423691" height="21.317766"
          x="0.3262403" y="0.20137644"
          ry="3.7118382" />
    <path id="tile-outline"
          d="M 3.89175,0 C 1.73575,0 0,1.735734 0,3.891752 v 14.021367
             c 0,2.156016 1.73575,3.891752 3.89175,3.891752 h 14.12937
             c 2.15603,0 3.89176,-1.735736 3.89176,-3.891752 V 3.891752
             C 21.91288,1.735734 20.17715,0 18.02112,0 Z m 0.0532,0.438216
             h 5.2e-4 14.02188 c 1.89888,0 3.4277,1.528826 3.4277,3.427698
             v 14.073043 c 0,0.02985 -0.004,0.05871 -0.005,0.08837
             -0.43701,0.446594 -1.57595,1.619206 -2.60501,1.62574
             -5.21898,-0.009 -10.43903,-0.04851 -15.65796,0 -1.02906,-0.0065
             -2.168,-1.179146 -2.60501,-1.62574 -7.5e-4,-0.02966 -0.005,-0.05852
             -0.005,-0.08837 V 3.865914 c 0,-1.898872 1.52882,-3.427698
             3.4277,-3.427698 z" />
  </defs>
  <g transform="translate(48.286)">
    <use href="#tile-fill" fill="#6fb05c" />
    <use href="#tile-outline" fill="#649e53" />
  </g>
  <g transform="translate(48.286,24.344)">
    <use href="#tile-fill" fill="#edeff1" />
    <use href="#tile-outline" fill="#d5d7d8" />
  </g>
  <g transform="translate(48.286,48.688)">
    <use href="#tile-fill" fill="#e9ba3a" />
    <use href="#tile-outline" fill="#d1a734" />
  </g>
  <g transform="translate(48.286,73.032)">
    <use href="#tile-fill" fill="#edeff1" />
    <use href="#tile-outline" fill="#d5d7d8" />
  </g>
  <g transform="translate(48.286,97.376)">
    <use href="#tile-fill" fill="#6fb05c" />
    <use href="#tile-outline" fill="#649e53" />
  </g>
  <g transform="translate(0,48.286)">
    <use href="#tile-fill" fill="#6fb05c" />
    <use href="#tile-outline" fill="#649e53" />
  </g>
  <g transform="translate(24.344,48.286)">
    <use href="#tile-fill" fill="#edeff1" />
    <use href="#tile-outline" fill="#d5d7d8" />
  </g>
  <g transform="translate(73.032,48.286)">
    <use href="#tile-fill" fill="#edeff1" />
    <use href="#tile-outline" fill="#d5d7d8" />
  </g>
  <g transform="translate(97.376,48.286)">
    <use href="#tile-fill" fill="#6fb05c" />
    <use href="#tile-outline" fill="#649e53" />
  </g>
  <g text-anchor="middle" font-size="15" font-family="sans-serif">
    <text fill="white" x="59.2425" y="17">M</text>
    <text fill="black" x="59.2425" y="41.344">K</text>
    <text fill="white" x="59.2425" y="65.688">A</text>
    <text fill="black" x="59.2425" y="90.032">U</text>
    <text fill="white" x="59.2425" y="114.376">E</text>
    <text fill="white" x="10.9565" y="65.688">S</text>
    <text fill="black" x="35.3005" y="65.688">F</text>
    <text fill="black" x="83.9885" y="65.688">G</text>
    <text fill="white" x="108.3325" y="65.688">T</text>
  </g>
</svg>
