<?xml version="1.0" encoding="UTF-8" standalone="no"?>
<svg xmlns="http://www.w3.org/2000/svg"
     version="1.1"
     viewBox="0 0 126.486 29.805">
  <defs>
    <rect id="tile-fill"
          width="21.423691" height="21.317766"
          x="0.3262403" y="0.20137644"
          ry="3.7118382" />
    <path id="tile-outline"
          d="M 3.89175,0 C 1.73575,0 0,1.735734 0,3.891752 v 14.021367
             c 0,2.156016 1.73575,3.891752 3.89175,3.891752 h 14.12937
             c 2.15603,0 3.89176,-1.735736 3.89176,-3.891752 V 3.891752
             C 21.91288,1.735734 20.17715,0 18.02112,0 Z m 0.0532,0.438216
             h 5.2e-4 14.02188 c 1.89888,0 3.4277,1.528826 3.4277,3.427698
             v 14.073043 c 0,0.02985 -0.004,0.05871 -0.005,0.08837
             -0.43701,0.446594 -1.57595,1.619206 -2.60501,1.62574
             -5.21898,-0.009 -10.43903,-0.04851 -15.65796,0 -1.02906,-0.0065
             -2.168,-1.179146 -2.60501,-1.62574 -7.5e-4,-0.02966 -0.005,-0.05852
             -0.005,-0.08837 V 3.865914 c 0,-1.898872 1.52882,-3.427698
             3.4277,-3.427698 z" />
  </defs>
  <g transform="translate(4,4)"
     text-anchor="middle"
     font-size="15"
     font-family="sans-serif">
    <g id="letter-1">
      <use href="#tile-fill" fill="#6fb05c" />
      <use href="#tile-outline" fill="#649e53" />
      <text fill="white" x="10.9565" y="17">V</text>
    </g>
    <g id="letter-3" transform="translate(48.288,0)">
      <use href="#tile-fill" fill="#6fb05c" />
      <use href="#tile-outline" fill="#649e53" />
      <text fill="white" x="10.9565" y="17">F</text>
    </g>
    <g id="letter-4" transform="translate(72.432,0)">
      <animateTransform id="returnTransform"
                        attributeName="transform"
                        type="translate"
                        from="72.432"
                        to="24.144"
                        dur="0.5"
                        begin="pointerTransform.end"/>
      <animateTransform attributeName="transform"
                        type="translate"
                        from="24.144"
                        by="0"
                        dur="0.5"
                        begin="returnTransform.end"
                        end="colorChange.end"/>
      <use href="#tile-fill" fill="#e9ba3a">
        <set begin="pointerTransform.end"
             attributeName="fill"
             to="#6fb05c"
             dur="1s"/>
      </use>
      <use href="#tile-outline" fill="#d1a734">
        <set begin="pointerTransform.end"
             end="colorChange.end"
             attributeName="fill"
             to="#649e53"/>
      </use>
      <text fill="white" x="10.9565" y="17">A</text>
    </g>
    <g id="letter-5" transform="translate(96.576,0)">
      <use href="#tile-fill" fill="#6fb05c" />
      <use href="#tile-outline" fill="#649e53" />
      <text fill="white" x="10.9565" y="17">O</text>
    </g>
    <g id="letter-2" transform="translate(72.432,0)">
      <animateTransform attributeName="transform"
                        type="translate"
                        from="24.144"
                        to="72.432"
                        begin="0s;colorChange.end"
                        dur="1s"/>
      <use href="#tile-fill" fill="#e9ba3a">
        <set id="colorChange"
             begin="pointerTransform.end"
             attributeName="fill"
             to="#6fb05c"
             dur="1s"/>
      </use>
      <use href="#tile-outline" fill="#d1a734">
        <set begin="pointerTransform.end"
             end="colorChange.end"
             attributeName="fill"
             to="#649e53"/>
      </use>
      <text fill="white" x="10.9565" y="17">L</text>
    </g>
    <path id="pointer"
          transform="translate(48.288,0)"
          fill="#000000" stroke="#ffffff" stroke-width="0.264583"
          d="M 36.683651,13.597056 l 1.169575,7.877326 2.47725,-2.420342
             3.820111,3.909931 1.889541,-1.846134 -3.820111,-3.909931
             2.472075,-2.415286 z">
      <animateTransform id="pointerTransform"
                        attributeName="transform"
                        type="translate"
                        from="0"
                        to="48.288"
                        begin="0s;colorChange.end"
                        dur="1s"/>
    </path>
  </g>
</svg>
