<?xml version="1.0" encoding="UTF-8" standalone="no"?>
<!-- Created with Inkscape (http://www.inkscape.org/) -->

<svg
   width="160.368mm"
   height="160.368mm"
   viewBox="0 0 160.36799 160.36799"
   version="1.1"
   id="svg5"
   xml:space="preserve"
   inkscape:version="1.2.2 (b0a8486541, 2022-12-01)"
   sodipodi:docname="favicon.svg"
   inkscape:export-filename="favicon.png"
   inkscape:export-xdpi="8.4875603"
   inkscape:export-ydpi="8.4875603"
   xmlns:inkscape="http://www.inkscape.org/namespaces/inkscape"
   xmlns:sodipodi="http://sodipodi.sourceforge.net/DTD/sodipodi-0.dtd"
   xmlns="http://www.w3.org/2000/svg"
   xmlns:svg="http://www.w3.org/2000/svg"><sodipodi:namedview
     id="namedview7"
     pagecolor="#ffffff"
     bordercolor="#666666"
     borderopacity="1.0"
     inkscape:showpageshadow="2"
     inkscape:pageopacity="0.0"
     inkscape:pagecheckerboard="0"
     inkscape:deskcolor="#d1d1d1"
     inkscape:document-units="mm"
     showgrid="false"
     inkscape:zoom="0.58416867"
     inkscape:cx="263.62249"
     inkscape:cy="479.31362"
     inkscape:window-width="1920"
     inkscape:window-height="1011"
     inkscape:window-x="0"
     inkscape:window-y="0"
     inkscape:window-maximized="1"
     inkscape:current-layer="layer1" /><defs
     id="defs2" /><g
     inkscape:label="Calque 1"
     inkscape:groupmode="layer"
     id="layer1"
     transform="translate(-14.567253,-24.820276)"><g
       id="g1975"
       transform="translate(0,2.3403623)"><g
         id="g1629"><rect
           style="fill:#6fb05c;fill-opacity:1;fill-rule:evenodd;stroke:#649e53;stroke-width:3;stroke-linecap:round;stroke-linejoin:round;stroke-opacity:1;paint-order:stroke markers fill"
           id="rect236"
           width="24.36731"
           height="24.36731"
           x="22.567932"
           y="30.480257"
           ry="5.87251" /><path
           id="rect1164"
           style="fill:#649e53;fill-opacity:1;fill-rule:evenodd;stroke:none;stroke-width:3;stroke-linecap:round;stroke-linejoin:round;stroke-opacity:1;paint-order:stroke markers fill"
           d="m 47.501493,48.729842 c -0.495957,2.744349 -2.884842,4.814177 -5.776391,4.814177 H 27.933179 c -2.883555,0 -5.267235,-2.058414 -5.772258,-4.791439 h -0.0031 v 0.963765 c 0,3.253364 2.619146,5.87251 5.872509,5.87251 h 12.622486 c 3.253364,0 7.034712,-2.641884 7.034712,-5.895247 v -0.963766 z" /></g><g
         id="g1635"
         transform="translate(30)"><rect
           style="fill:#6fb05c;fill-opacity:1;fill-rule:evenodd;stroke:#649e53;stroke-width:3;stroke-linecap:round;stroke-linejoin:round;stroke-opacity:1;paint-order:stroke markers fill"
           id="rect1631"
           width="24.36731"
           height="24.36731"
           x="22.567932"
           y="30.480257"
           ry="5.87251" /><path
           id="path1633"
           style="fill:#649e53;fill-opacity:1;fill-rule:evenodd;stroke:none;stroke-width:3;stroke-linecap:round;stroke-linejoin:round;stroke-opacity:1;paint-order:stroke markers fill"
           d="m 47.501493,48.729842 c -0.495957,2.744349 -2.884842,4.814177 -5.776391,4.814177 H 27.933179 c -2.883555,0 -5.267235,-2.058414 -5.772258,-4.791439 h -0.0031 v 0.963765 c 0,3.253364 2.619146,5.87251 5.872509,5.87251 h 12.622486 c 3.253364,0 7.034712,-2.641884 7.034712,-5.895247 v -0.963766 z" /></g><g
         id="g1641"
         transform="translate(60)"><rect
           style="fill:#6fb05c;fill-opacity:1;fill-rule:evenodd;stroke:#649e53;stroke-width:3;stroke-linecap:round;stroke-linejoin:round;stroke-opacity:1;paint-order:stroke markers fill"
           id="rect1637"
           width="24.36731"
           height="24.36731"
           x="22.567932"
           y="30.480257"
           ry="5.87251" /><path
           id="path1639"
           style="fill:#649e53;fill-opacity:1;fill-rule:evenodd;stroke:none;stroke-width:3;stroke-linecap:round;stroke-linejoin:round;stroke-opacity:1;paint-order:stroke markers fill"
           d="m 47.501493,48.729842 c -0.495957,2.744349 -2.884842,4.814177 -5.776391,4.814177 H 27.933179 c -2.883555,0 -5.267235,-2.058414 -5.772258,-4.791439 h -0.0031 v 0.963765 c 0,3.253364 2.619146,5.87251 5.872509,5.87251 h 12.622486 c 3.253364,0 7.034712,-2.641884 7.034712,-5.895247 v -0.963766 z" /></g><g
         id="g1647"
         transform="translate(90)"><rect
           style="fill:#6fb05c;fill-opacity:1;fill-rule:evenodd;stroke:#649e53;stroke-width:3;stroke-linecap:round;stroke-linejoin:round;stroke-opacity:1;paint-order:stroke markers fill"
           id="rect1643"
           width="24.36731"
           height="24.36731"
           x="22.567932"
           y="30.480257"
           ry="5.87251" /><path
           id="path1645"
           style="fill:#649e53;fill-opacity:1;fill-rule:evenodd;stroke:none;stroke-width:3;stroke-linecap:round;stroke-linejoin:round;stroke-opacity:1;paint-order:stroke markers fill"
           d="m 47.501493,48.729842 c -0.495957,2.744349 -2.884842,4.814177 -5.776391,4.814177 H 27.933179 c -2.883555,0 -5.267235,-2.058414 -5.772258,-4.791439 h -0.0031 v 0.963765 c 0,3.253364 2.619146,5.87251 5.872509,5.87251 h 12.622486 c 3.253364,0 7.034712,-2.641884 7.034712,-5.895247 v -0.963766 z" /></g><g
         id="g1653"
         transform="translate(120)"><rect
           style="fill:#6fb05c;fill-opacity:1;fill-rule:evenodd;stroke:#649e53;stroke-width:3;stroke-linecap:round;stroke-linejoin:round;stroke-opacity:1;paint-order:stroke markers fill"
           id="rect1649"
           width="24.36731"
           height="24.36731"
           x="22.567932"
           y="30.480257"
           ry="5.87251" /><path
           id="path1651"
           style="fill:#649e53;fill-opacity:1;fill-rule:evenodd;stroke:none;stroke-width:3;stroke-linecap:round;stroke-linejoin:round;stroke-opacity:1;paint-order:stroke markers fill"
           d="m 47.501493,48.729842 c -0.495957,2.744349 -2.884842,4.814177 -5.776391,4.814177 H 27.933179 c -2.883555,0 -5.267235,-2.058414 -5.772258,-4.791439 h -0.0031 v 0.963765 c 0,3.253364 2.619146,5.87251 5.872509,5.87251 h 12.622486 c 3.253364,0 7.034712,-2.641884 7.034712,-5.895247 v -0.963766 z" /></g><g
         id="g1659"
         transform="translate(0,30)"><rect
           style="fill:#6fb05c;fill-opacity:1;fill-rule:evenodd;stroke:#649e53;stroke-width:3;stroke-linecap:round;stroke-linejoin:round;stroke-opacity:1;paint-order:stroke markers fill"
           id="rect1655"
           width="24.36731"
           height="24.36731"
           x="22.567932"
           y="30.480257"
           ry="5.87251" /><path
           id="path1657"
           style="fill:#649e53;fill-opacity:1;fill-rule:evenodd;stroke:none;stroke-width:3;stroke-linecap:round;stroke-linejoin:round;stroke-opacity:1;paint-order:stroke markers fill"
           d="m 47.501493,48.729842 c -0.495957,2.744349 -2.884842,4.814177 -5.776391,4.814177 H 27.933179 c -2.883555,0 -5.267235,-2.058414 -5.772258,-4.791439 h -0.0031 v 0.963765 c 0,3.253364 2.619146,5.87251 5.872509,5.87251 h 12.622486 c 3.253364,0 7.034712,-2.641884 7.034712,-5.895247 v -0.963766 z" /></g><g
         id="g1671"
         transform="translate(60,30)"><rect
           style="fill:#6fb05c;fill-opacity:1;fill-rule:evenodd;stroke:#649e53;stroke-width:3;stroke-linecap:round;stroke-linejoin:round;stroke-opacity:1;paint-order:stroke markers fill"
           id="rect1667"
           width="24.36731"
           height="24.36731"
           x="22.567932"
           y="30.480257"
           ry="5.87251" /><path
           id="path1669"
           style="fill:#649e53;fill-opacity:1;fill-rule:evenodd;stroke:none;stroke-width:3;stroke-linecap:round;stroke-linejoin:round;stroke-opacity:1;paint-order:stroke markers fill"
           d="m 47.501493,48.729842 c -0.495957,2.744349 -2.884842,4.814177 -5.776391,4.814177 H 27.933179 c -2.883555,0 -5.267235,-2.058414 -5.772258,-4.791439 h -0.0031 v 0.963765 c 0,3.253364 2.619146,5.87251 5.872509,5.87251 h 12.622486 c 3.253364,0 7.034712,-2.641884 7.034712,-5.895247 v -0.963766 z" /></g><g
         id="g1683"
         transform="translate(120,30)"><rect
           style="fill:#6fb05c;fill-opacity:1;fill-rule:evenodd;stroke:#649e53;stroke-width:3;stroke-linecap:round;stroke-linejoin:round;stroke-opacity:1;paint-order:stroke markers fill"
           id="rect1679"
           width="24.36731"
           height="24.36731"
           x="22.567932"
           y="30.480257"
           ry="5.87251" /><path
           id="path1681"
           style="fill:#649e53;fill-opacity:1;fill-rule:evenodd;stroke:none;stroke-width:3;stroke-linecap:round;stroke-linejoin:round;stroke-opacity:1;paint-order:stroke markers fill"
           d="m 47.501493,48.729842 c -0.495957,2.744349 -2.884842,4.814177 -5.776391,4.814177 H 27.933179 c -2.883555,0 -5.267235,-2.058414 -5.772258,-4.791439 h -0.0031 v 0.963765 c 0,3.253364 2.619146,5.87251 5.872509,5.87251 h 12.622486 c 3.253364,0 7.034712,-2.641884 7.034712,-5.895247 v -0.963766 z" /></g><g
         id="g1689"
         transform="translate(0,60)"><rect
           style="fill:#6fb05c;fill-opacity:1;fill-rule:evenodd;stroke:#649e53;stroke-width:3;stroke-linecap:round;stroke-linejoin:round;stroke-opacity:1;paint-order:stroke markers fill"
           id="rect1685"
           width="24.36731"
           height="24.36731"
           x="22.567932"
           y="30.480257"
           ry="5.87251" /><path
           id="path1687"
           style="fill:#649e53;fill-opacity:1;fill-rule:evenodd;stroke:none;stroke-width:3;stroke-linecap:round;stroke-linejoin:round;stroke-opacity:1;paint-order:stroke markers fill"
           d="m 47.501493,48.729842 c -0.495957,2.744349 -2.884842,4.814177 -5.776391,4.814177 H 27.933179 c -2.883555,0 -5.267235,-2.058414 -5.772258,-4.791439 h -0.0031 v 0.963765 c 0,3.253364 2.619146,5.87251 5.872509,5.87251 h 12.622486 c 3.253364,0 7.034712,-2.641884 7.034712,-5.895247 v -0.963766 z" /></g><g
         id="g1695"
         transform="translate(30,60)"><rect
           style="fill:#6fb05c;fill-opacity:1;fill-rule:evenodd;stroke:#649e53;stroke-width:3;stroke-linecap:round;stroke-linejoin:round;stroke-opacity:1;paint-order:stroke markers fill"
           id="rect1691"
           width="24.36731"
           height="24.36731"
           x="22.567932"
           y="30.480257"
           ry="5.87251" /><path
           id="path1693"
           style="fill:#649e53;fill-opacity:1;fill-rule:evenodd;stroke:none;stroke-width:3;stroke-linecap:round;stroke-linejoin:round;stroke-opacity:1;paint-order:stroke markers fill"
           d="m 47.501493,48.729842 c -0.495957,2.744349 -2.884842,4.814177 -5.776391,4.814177 H 27.933179 c -2.883555,0 -5.267235,-2.058414 -5.772258,-4.791439 h -0.0031 v 0.963765 c 0,3.253364 2.619146,5.87251 5.872509,5.87251 h 12.622486 c 3.253364,0 7.034712,-2.641884 7.034712,-5.895247 v -0.963766 z" /></g><g
         id="g1701"
         transform="translate(60,60)"><rect
           style="fill:#6fb05c;fill-opacity:1;fill-rule:evenodd;stroke:#649e53;stroke-width:3;stroke-linecap:round;stroke-linejoin:round;stroke-opacity:1;paint-order:stroke markers fill"
           id="rect1697"
           width="24.36731"
           height="24.36731"
           x="22.567932"
           y="30.480257"
           ry="5.87251" /><path
           id="path1699"
           style="fill:#649e53;fill-opacity:1;fill-rule:evenodd;stroke:none;stroke-width:3;stroke-linecap:round;stroke-linejoin:round;stroke-opacity:1;paint-order:stroke markers fill"
           d="m 47.501493,48.729842 c -0.495957,2.744349 -2.884842,4.814177 -5.776391,4.814177 H 27.933179 c -2.883555,0 -5.267235,-2.058414 -5.772258,-4.791439 h -0.0031 v 0.963765 c 0,3.253364 2.619146,5.87251 5.872509,5.87251 h 12.622486 c 3.253364,0 7.034712,-2.641884 7.034712,-5.895247 v -0.963766 z" /></g><g
         id="g1707"
         transform="translate(90,60)"><rect
           style="fill:#6fb05c;fill-opacity:1;fill-rule:evenodd;stroke:#649e53;stroke-width:3;stroke-linecap:round;stroke-linejoin:round;stroke-opacity:1;paint-order:stroke markers fill"
           id="rect1703"
           width="24.36731"
           height="24.36731"
           x="22.567932"
           y="30.480257"
           ry="5.87251" /><path
           id="path1705"
           style="fill:#649e53;fill-opacity:1;fill-rule:evenodd;stroke:none;stroke-width:3;stroke-linecap:round;stroke-linejoin:round;stroke-opacity:1;paint-order:stroke markers fill"
           d="m 47.501493,48.729842 c -0.495957,2.744349 -2.884842,4.814177 -5.776391,4.814177 H 27.933179 c -2.883555,0 -5.267235,-2.058414 -5.772258,-4.791439 h -0.0031 v 0.963765 c 0,3.253364 2.619146,5.87251 5.872509,5.87251 h 12.622486 c 3.253364,0 7.034712,-2.641884 7.034712,-5.895247 v -0.963766 z" /></g><g
         id="g1713"
         transform="translate(120,60)"><rect
           style="fill:#6fb05c;fill-opacity:1;fill-rule:evenodd;stroke:#649e53;stroke-width:3;stroke-linecap:round;stroke-linejoin:round;stroke-opacity:1;paint-order:stroke markers fill"
           id="rect1709"
           width="24.36731"
           height="24.36731"
           x="22.567932"
           y="30.480257"
           ry="5.87251" /><path
           id="path1711"
           style="fill:#649e53;fill-opacity:1;fill-rule:evenodd;stroke:none;stroke-width:3;stroke-linecap:round;stroke-linejoin:round;stroke-opacity:1;paint-order:stroke markers fill"
           d="m 47.501493,48.729842 c -0.495957,2.744349 -2.884842,4.814177 -5.776391,4.814177 H 27.933179 c -2.883555,0 -5.267235,-2.058414 -5.772258,-4.791439 h -0.0031 v 0.963765 c 0,3.253364 2.619146,5.87251 5.872509,5.87251 h 12.622486 c 3.253364,0 7.034712,-2.641884 7.034712,-5.895247 v -0.963766 z" /></g><g
         id="g1719"
         transform="translate(0,90)"><rect
           style="fill:#6fb05c;fill-opacity:1;fill-rule:evenodd;stroke:#649e53;stroke-width:3;stroke-linecap:round;stroke-linejoin:round;stroke-opacity:1;paint-order:stroke markers fill"
           id="rect1715"
           width="24.36731"
           height="24.36731"
           x="22.567932"
           y="30.480257"
           ry="5.87251" /><path
           id="path1717"
           style="fill:#649e53;fill-opacity:1;fill-rule:evenodd;stroke:none;stroke-width:3;stroke-linecap:round;stroke-linejoin:round;stroke-opacity:1;paint-order:stroke markers fill"
           d="m 47.501493,48.729842 c -0.495957,2.744349 -2.884842,4.814177 -5.776391,4.814177 H 27.933179 c -2.883555,0 -5.267235,-2.058414 -5.772258,-4.791439 h -0.0031 v 0.963765 c 0,3.253364 2.619146,5.87251 5.872509,5.87251 h 12.622486 c 3.253364,0 7.034712,-2.641884 7.034712,-5.895247 v -0.963766 z" /></g><g
         id="g1731"
         transform="translate(60,90)"><rect
           style="fill:#6fb05c;fill-opacity:1;fill-rule:evenodd;stroke:#649e53;stroke-width:3;stroke-linecap:round;stroke-linejoin:round;stroke-opacity:1;paint-order:stroke markers fill"
           id="rect1727"
           width="24.36731"
           height="24.36731"
           x="22.567932"
           y="30.480257"
           ry="5.87251" /><path
           id="path1729"
           style="fill:#649e53;fill-opacity:1;fill-rule:evenodd;stroke:none;stroke-width:3;stroke-linecap:round;stroke-linejoin:round;stroke-opacity:1;paint-order:stroke markers fill"
           d="m 47.501493,48.729842 c -0.495957,2.744349 -2.884842,4.814177 -5.776391,4.814177 H 27.933179 c -2.883555,0 -5.267235,-2.058414 -5.772258,-4.791439 h -0.0031 v 0.963765 c 0,3.253364 2.619146,5.87251 5.872509,5.87251 h 12.622486 c 3.253364,0 7.034712,-2.641884 7.034712,-5.895247 v -0.963766 z" /></g><g
         id="g1743"
         transform="translate(120,90)"><rect
           style="fill:#6fb05c;fill-opacity:1;fill-rule:evenodd;stroke:#649e53;stroke-width:3;stroke-linecap:round;stroke-linejoin:round;stroke-opacity:1;paint-order:stroke markers fill"
           id="rect1739"
           width="24.36731"
           height="24.36731"
           x="22.567932"
           y="30.480257"
           ry="5.87251" /><path
           id="path1741"
           style="fill:#649e53;fill-opacity:1;fill-rule:evenodd;stroke:none;stroke-width:3;stroke-linecap:round;stroke-linejoin:round;stroke-opacity:1;paint-order:stroke markers fill"
           d="m 47.501493,48.729842 c -0.495957,2.744349 -2.884842,4.814177 -5.776391,4.814177 H 27.933179 c -2.883555,0 -5.267235,-2.058414 -5.772258,-4.791439 h -0.0031 v 0.963765 c 0,3.253364 2.619146,5.87251 5.872509,5.87251 h 12.622486 c 3.253364,0 7.034712,-2.641884 7.034712,-5.895247 v -0.963766 z" /></g><g
         id="g1749"
         transform="translate(0,120)"><rect
           style="fill:#6fb05c;fill-opacity:1;fill-rule:evenodd;stroke:#649e53;stroke-width:3;stroke-linecap:round;stroke-linejoin:round;stroke-opacity:1;paint-order:stroke markers fill"
           id="rect1745"
           width="24.36731"
           height="24.36731"
           x="22.567932"
           y="30.480257"
           ry="5.87251" /><path
           id="path1747"
           style="fill:#649e53;fill-opacity:1;fill-rule:evenodd;stroke:none;stroke-width:3;stroke-linecap:round;stroke-linejoin:round;stroke-opacity:1;paint-order:stroke markers fill"
           d="m 47.501493,48.729842 c -0.495957,2.744349 -2.884842,4.814177 -5.776391,4.814177 H 27.933179 c -2.883555,0 -5.267235,-2.058414 -5.772258,-4.791439 h -0.0031 v 0.963765 c 0,3.253364 2.619146,5.87251 5.872509,5.87251 h 12.622486 c 3.253364,0 7.034712,-2.641884 7.034712,-5.895247 v -0.963766 z" /></g><g
         id="g1755"
         transform="translate(30,120)"><rect
           style="fill:#6fb05c;fill-opacity:1;fill-rule:evenodd;stroke:#649e53;stroke-width:3;stroke-linecap:round;stroke-linejoin:round;stroke-opacity:1;paint-order:stroke markers fill"
           id="rect1751"
           width="24.36731"
           height="24.36731"
           x="22.567932"
           y="30.480257"
           ry="5.87251" /><path
           id="path1753"
           style="fill:#649e53;fill-opacity:1;fill-rule:evenodd;stroke:none;stroke-width:3;stroke-linecap:round;stroke-linejoin:round;stroke-opacity:1;paint-order:stroke markers fill"
           d="m 47.501493,48.729842 c -0.495957,2.744349 -2.884842,4.814177 -5.776391,4.814177 H 27.933179 c -2.883555,0 -5.267235,-2.058414 -5.772258,-4.791439 h -0.0031 v 0.963765 c 0,3.253364 2.619146,5.87251 5.872509,5.87251 h 12.622486 c 3.253364,0 7.034712,-2.641884 7.034712,-5.895247 v -0.963766 z" /></g><g
         id="g1761"
         transform="translate(60,120)"><rect
           style="fill:#6fb05c;fill-opacity:1;fill-rule:evenodd;stroke:#649e53;stroke-width:3;stroke-linecap:round;stroke-linejoin:round;stroke-opacity:1;paint-order:stroke markers fill"
           id="rect1757"
           width="24.36731"
           height="24.36731"
           x="22.567932"
           y="30.480257"
           ry="5.87251" /><path
           id="path1759"
           style="fill:#649e53;fill-opacity:1;fill-rule:evenodd;stroke:none;stroke-width:3;stroke-linecap:round;stroke-linejoin:round;stroke-opacity:1;paint-order:stroke markers fill"
           d="m 47.501493,48.729842 c -0.495957,2.744349 -2.884842,4.814177 -5.776391,4.814177 H 27.933179 c -2.883555,0 -5.267235,-2.058414 -5.772258,-4.791439 h -0.0031 v 0.963765 c 0,3.253364 2.619146,5.87251 5.872509,5.87251 h 12.622486 c 3.253364,0 7.034712,-2.641884 7.034712,-5.895247 v -0.963766 z" /></g><g
         id="g1767"
         transform="translate(90,120)"><rect
           style="fill:#6fb05c;fill-opacity:1;fill-rule:evenodd;stroke:#649e53;stroke-width:3;stroke-linecap:round;stroke-linejoin:round;stroke-opacity:1;paint-order:stroke markers fill"
           id="rect1763"
           width="24.36731"
           height="24.36731"
           x="22.567932"
           y="30.480257"
           ry="5.87251" /><path
           id="path1765"
           style="fill:#649e53;fill-opacity:1;fill-rule:evenodd;stroke:none;stroke-width:3;stroke-linecap:round;stroke-linejoin:round;stroke-opacity:1;paint-order:stroke markers fill"
           d="m 47.501493,48.729842 c -0.495957,2.744349 -2.884842,4.814177 -5.776391,4.814177 H 27.933179 c -2.883555,0 -5.267235,-2.058414 -5.772258,-4.791439 h -0.0031 v 0.963765 c 0,3.253364 2.619146,5.87251 5.872509,5.87251 h 12.622486 c 3.253364,0 7.034712,-2.641884 7.034712,-5.895247 v -0.963766 z" /></g><g
         id="g1773"
         transform="translate(120,120)"><rect
           style="fill:#6fb05c;fill-opacity:1;fill-rule:evenodd;stroke:#649e53;stroke-width:3;stroke-linecap:round;stroke-linejoin:round;stroke-opacity:1;paint-order:stroke markers fill"
           id="rect1769"
           width="24.36731"
           height="24.36731"
           x="22.567932"
           y="30.480257"
           ry="5.87251" /><path
           id="path1771"
           style="fill:#649e53;fill-opacity:1;fill-rule:evenodd;stroke:none;stroke-width:3;stroke-linecap:round;stroke-linejoin:round;stroke-opacity:1;paint-order:stroke markers fill"
           d="m 47.501493,48.729842 c -0.495957,2.744349 -2.884842,4.814177 -5.776391,4.814177 H 27.933179 c -2.883555,0 -5.267235,-2.058414 -5.772258,-4.791439 h -0.0031 v 0.963765 c 0,3.253364 2.619146,5.87251 5.872509,5.87251 h 12.622486 c 3.253364,0 7.034712,-2.641884 7.034712,-5.895247 v -0.963766 z" /></g></g></g></svg>
